<svg xmlns="http://www.w3.org/2000/svg" viewBox="0 0 760 420" font-family="Segoe UI, Arial, sans-serif">
<rect width="760" height="420" rx="16" fill="#fffbeb"/>
<text x="380.0" y="30" font-size="19" fill="#713f12" text-anchor="middle" font-weight="700" font-style="normal">Свечные паттерны разворота — где они работают</text>
<text x="380.0" y="50" font-size="12.5" fill="#92400e" text-anchor="middle" font-weight="400" font-style="normal">сигнал силён только НА УРОВНЕ, не в пустоте</text>
<rect x="60" y="80" width="180" height="210" rx="8" fill="#ffffff"/>
<text x="150.0" y="70" font-size="12.5" fill="#713f12" text-anchor="middle" font-weight="700" font-style="normal">Молот (пин-бар)</text>
<line x1="85.7" y1="104.2" x2="85.7" y2="152.7" stroke="#991b1b" stroke-width="1.5"/>
<rect x="78.6" y="112.3" width="14.1" height="32.3" rx="1.5" fill="#ef4444" stroke="#991b1b" stroke-width="1"/>
<line x1="111.4" y1="136.5" x2="111.4" y2="185.0" stroke="#991b1b" stroke-width="1.5"/>
<rect x="104.4" y="144.6" width="14.1" height="32.3" rx="1.5" fill="#ef4444" stroke="#991b1b" stroke-width="1"/>
<line x1="137.1" y1="168.8" x2="137.1" y2="217.3" stroke="#991b1b" stroke-width="1.5"/>
<rect x="130.1" y="176.9" width="14.1" height="32.3" rx="1.5" fill="#ef4444" stroke="#991b1b" stroke-width="1"/>
<line x1="162.9" y1="201.2" x2="162.9" y2="273.8" stroke="#166534" stroke-width="1.5"/>
<rect x="155.8" y="205.2" width="14.1" height="4.0" rx="1.5" fill="#22c55e" stroke="#166534" stroke-width="1"/>
<line x1="188.6" y1="160.8" x2="188.6" y2="213.3" stroke="#166534" stroke-width="1.5"/>
<rect x="181.5" y="168.8" width="14.1" height="36.3" rx="1.5" fill="#22c55e" stroke="#166534" stroke-width="1"/>
<line x1="214.3" y1="128.5" x2="214.3" y2="176.9" stroke="#166534" stroke-width="1.5"/>
<rect x="207.2" y="136.5" width="14.1" height="32.3" rx="1.5" fill="#22c55e" stroke="#166534" stroke-width="1"/>
<rect x="146.9" y="84" width="32" height="202" rx="4" fill="none" stroke="#166534" stroke-width="2" stroke-dasharray="4 3"/>
<text x="150.0" y="312" font-size="11" fill="#166534" text-anchor="middle" font-weight="700" font-style="normal">длинная нижняя тень = откуп</text>
<rect x="290" y="80" width="180" height="210" rx="8" fill="#ffffff"/>
<text x="380.0" y="70" font-size="12.5" fill="#713f12" text-anchor="middle" font-weight="700" font-style="normal">Бычье поглощение</text>
<line x1="315.7" y1="146.3" x2="315.7" y2="201.6" stroke="#991b1b" stroke-width="1.5"/>
<rect x="308.6" y="157.4" width="14.1" height="33.2" rx="1.5" fill="#ef4444" stroke="#991b1b" stroke-width="1"/>
<line x1="341.4" y1="179.5" x2="341.4" y2="234.7" stroke="#991b1b" stroke-width="1.5"/>
<rect x="334.4" y="190.5" width="14.1" height="33.2" rx="1.5" fill="#ef4444" stroke="#991b1b" stroke-width="1"/>
<line x1="367.1" y1="212.6" x2="367.1" y2="267.9" stroke="#991b1b" stroke-width="1.5"/>
<rect x="360.1" y="223.7" width="14.1" height="33.2" rx="1.5" fill="#ef4444" stroke="#991b1b" stroke-width="1"/>
<line x1="392.9" y1="157.4" x2="392.9" y2="256.8" stroke="#166534" stroke-width="1.5"/>
<rect x="385.8" y="168.4" width="14.1" height="77.4" rx="1.5" fill="#22c55e" stroke="#166534" stroke-width="1"/>
<line x1="418.6" y1="124.2" x2="418.6" y2="179.5" stroke="#166534" stroke-width="1.5"/>
<rect x="411.5" y="135.3" width="14.1" height="33.2" rx="1.5" fill="#22c55e" stroke="#166534" stroke-width="1"/>
<line x1="444.3" y1="102.1" x2="444.3" y2="146.3" stroke="#166534" stroke-width="1.5"/>
<rect x="437.2" y="113.2" width="14.1" height="22.1" rx="1.5" fill="#22c55e" stroke="#166534" stroke-width="1"/>
<rect x="376.9" y="84" width="32" height="202" rx="4" fill="none" stroke="#166534" stroke-width="2" stroke-dasharray="4 3"/>
<text x="380.0" y="312" font-size="11" fill="#166534" text-anchor="middle" font-weight="700" font-style="normal">зелёная съела красную</text>
<rect x="520" y="80" width="180" height="210" rx="8" fill="#ffffff"/>
<text x="610.0" y="70" font-size="12.5" fill="#713f12" text-anchor="middle" font-weight="700" font-style="normal">Доджи (нерешительность)</text>
<line x1="545.7" y1="208.3" x2="545.7" y2="278.3" stroke="#166534" stroke-width="1.5"/>
<rect x="538.6" y="220.0" width="14.1" height="46.7" rx="1.5" fill="#22c55e" stroke="#166534" stroke-width="1"/>
<line x1="571.4" y1="161.7" x2="571.4" y2="231.7" stroke="#166534" stroke-width="1.5"/>
<rect x="564.4" y="173.3" width="14.1" height="46.7" rx="1.5" fill="#22c55e" stroke="#166534" stroke-width="1"/>
<line x1="597.1" y1="115.0" x2="597.1" y2="185.0" stroke="#166534" stroke-width="1.5"/>
<rect x="590.1" y="126.7" width="14.1" height="46.7" rx="1.5" fill="#22c55e" stroke="#166534" stroke-width="1"/>
<line x1="622.9" y1="109.2" x2="622.9" y2="144.2" stroke="#166534" stroke-width="1.5"/>
<rect x="615.8" y="124.3" width="14.1" height="2.3" rx="1.5" fill="#22c55e" stroke="#166534" stroke-width="1"/>
<line x1="648.6" y1="115.0" x2="648.6" y2="185.0" stroke="#991b1b" stroke-width="1.5"/>
<rect x="641.5" y="126.7" width="14.1" height="46.7" rx="1.5" fill="#ef4444" stroke="#991b1b" stroke-width="1"/>
<line x1="674.3" y1="161.7" x2="674.3" y2="231.7" stroke="#991b1b" stroke-width="1.5"/>
<rect x="667.2" y="173.3" width="14.1" height="46.7" rx="1.5" fill="#ef4444" stroke="#991b1b" stroke-width="1"/>
<rect x="606.9" y="84" width="32" height="202" rx="4" fill="none" stroke="#991b1b" stroke-width="2" stroke-dasharray="4 3"/>
<text x="610.0" y="312" font-size="11" fill="#991b1b" text-anchor="middle" font-weight="700" font-style="normal">крест на вершине = стоп роста</text>
<text x="380" y="405" font-size="11.5" fill="#92400e" text-anchor="middle" font-weight="400" font-style="italic">Паттерн — это подсказка о развороте, а не гарантия. Подтверждай следующей свечой и объёмом.</text>
</svg>
