<svg xmlns="http://www.w3.org/2000/svg" viewBox="0 0 760 430" font-family="Segoe UI, Arial, sans-serif">
<rect width="760" height="430" rx="16" fill="#fffbeb"/>
<text x="380.0" y="30" font-size="19" fill="#713f12" text-anchor="middle" font-weight="700" font-style="normal">Реальный график: тренд, откат, объём</text>
<text x="380.0" y="50" font-size="12.5" fill="#92400e" text-anchor="middle" font-weight="400" font-style="normal">фьючерс · таймфрейм 1H · цена в пунктах</text>
<rect x="70" y="64" width="600" height="250" rx="8" fill="#ffffff"/>
<line x1="70" y1="287.7" x2="670" y2="287.7" stroke="#f3e8c8" stroke-width="1"/>
<text x="676" y="291.7" font-size="10.5" fill="#a8a29e">100</text>
<line x1="70" y1="221.9" x2="670" y2="221.9" stroke="#f3e8c8" stroke-width="1"/>
<text x="676" y="225.9" font-size="10.5" fill="#a8a29e">110</text>
<line x1="70" y1="156.1" x2="670" y2="156.1" stroke="#f3e8c8" stroke-width="1"/>
<text x="676" y="160.1" font-size="10.5" fill="#a8a29e">120</text>
<line x1="70" y1="90.3" x2="670" y2="90.3" stroke="#f3e8c8" stroke-width="1"/>
<text x="676" y="94.3" font-size="10.5" fill="#a8a29e">130</text>
<line x1="98.6" y1="258.7" x2="98.6" y2="296.9" stroke="#166534" stroke-width="1.5"/>
<rect x="90.7" y="267.9" width="15.7" height="19.7" rx="1.5" fill="#22c55e" stroke="#166534" stroke-width="1"/>
<line x1="127.1" y1="258.7" x2="127.1" y2="283.7" stroke="#991b1b" stroke-width="1.5"/>
<rect x="119.3" y="267.9" width="15.7" height="6.6" rx="1.5" fill="#ef4444" stroke="#991b1b" stroke-width="1"/>
<line x1="155.7" y1="239.0" x2="155.7" y2="283.7" stroke="#166534" stroke-width="1.5"/>
<rect x="147.9" y="248.2" width="15.7" height="26.3" rx="1.5" fill="#22c55e" stroke="#166534" stroke-width="1"/>
<line x1="184.3" y1="225.8" x2="184.3" y2="257.4" stroke="#166534" stroke-width="1.5"/>
<rect x="176.4" y="235.1" width="15.7" height="13.2" rx="1.5" fill="#22c55e" stroke="#166534" stroke-width="1"/>
<line x1="212.9" y1="225.8" x2="212.9" y2="250.8" stroke="#991b1b" stroke-width="1.5"/>
<rect x="205.0" y="235.1" width="15.7" height="6.6" rx="1.5" fill="#ef4444" stroke="#991b1b" stroke-width="1"/>
<line x1="241.4" y1="206.1" x2="241.4" y2="250.8" stroke="#166534" stroke-width="1.5"/>
<rect x="233.6" y="215.3" width="15.7" height="26.3" rx="1.5" fill="#22c55e" stroke="#166534" stroke-width="1"/>
<line x1="270.0" y1="186.4" x2="270.0" y2="224.5" stroke="#166534" stroke-width="1.5"/>
<rect x="262.1" y="195.6" width="15.7" height="19.7" rx="1.5" fill="#22c55e" stroke="#166534" stroke-width="1"/>
<line x1="298.6" y1="186.4" x2="298.6" y2="211.4" stroke="#991b1b" stroke-width="1.5"/>
<rect x="290.7" y="195.6" width="15.7" height="6.6" rx="1.5" fill="#ef4444" stroke="#991b1b" stroke-width="1"/>
<line x1="327.1" y1="166.6" x2="327.1" y2="211.4" stroke="#166534" stroke-width="1.5"/>
<rect x="319.3" y="175.8" width="15.7" height="26.3" rx="1.5" fill="#22c55e" stroke="#166534" stroke-width="1"/>
<line x1="355.7" y1="146.9" x2="355.7" y2="185.1" stroke="#166534" stroke-width="1.5"/>
<rect x="347.9" y="156.1" width="15.7" height="19.7" rx="1.5" fill="#22c55e" stroke="#166534" stroke-width="1"/>
<line x1="384.3" y1="146.9" x2="384.3" y2="178.5" stroke="#991b1b" stroke-width="1.5"/>
<rect x="376.4" y="156.1" width="15.7" height="13.2" rx="1.5" fill="#ef4444" stroke="#991b1b" stroke-width="1"/>
<line x1="412.9" y1="160.1" x2="412.9" y2="198.2" stroke="#991b1b" stroke-width="1.5"/>
<rect x="405.0" y="169.3" width="15.7" height="19.7" rx="1.5" fill="#ef4444" stroke="#991b1b" stroke-width="1"/>
<line x1="441.4" y1="173.2" x2="441.4" y2="198.2" stroke="#166534" stroke-width="1.5"/>
<rect x="433.6" y="182.4" width="15.7" height="6.6" rx="1.5" fill="#22c55e" stroke="#166534" stroke-width="1"/>
<line x1="470.0" y1="173.2" x2="470.0" y2="211.4" stroke="#991b1b" stroke-width="1.5"/>
<rect x="462.1" y="182.4" width="15.7" height="19.7" rx="1.5" fill="#ef4444" stroke="#991b1b" stroke-width="1"/>
<line x1="498.6" y1="166.6" x2="498.6" y2="211.4" stroke="#166534" stroke-width="1.5"/>
<rect x="490.7" y="175.8" width="15.7" height="26.3" rx="1.5" fill="#22c55e" stroke="#166534" stroke-width="1"/>
<line x1="527.1" y1="140.3" x2="527.1" y2="185.1" stroke="#166534" stroke-width="1.5"/>
<rect x="519.3" y="149.5" width="15.7" height="26.3" rx="1.5" fill="#22c55e" stroke="#166534" stroke-width="1"/>
<line x1="555.7" y1="120.6" x2="555.7" y2="158.7" stroke="#166534" stroke-width="1.5"/>
<rect x="547.9" y="129.8" width="15.7" height="19.7" rx="1.5" fill="#22c55e" stroke="#166534" stroke-width="1"/>
<line x1="584.3" y1="120.6" x2="584.3" y2="145.6" stroke="#991b1b" stroke-width="1.5"/>
<rect x="576.4" y="129.8" width="15.7" height="6.6" rx="1.5" fill="#ef4444" stroke="#991b1b" stroke-width="1"/>
<line x1="612.9" y1="100.8" x2="612.9" y2="145.6" stroke="#166534" stroke-width="1.5"/>
<rect x="605.0" y="110.1" width="15.7" height="26.3" rx="1.5" fill="#22c55e" stroke="#166534" stroke-width="1"/>
<line x1="641.4" y1="81.1" x2="641.4" y2="119.3" stroke="#166534" stroke-width="1.5"/>
<rect x="633.6" y="90.3" width="15.7" height="19.7" rx="1.5" fill="#22c55e" stroke="#166534" stroke-width="1"/>
<text x="150" y="300" font-size="11.5" fill="#166534" text-anchor="start" font-weight="700" font-style="normal">восходящий тренд</text>
<text x="330" y="150" font-size="11.5" fill="#991b1b" text-anchor="start" font-weight="700" font-style="normal">откат (коррекция)</text>
<text x="560" y="95" font-size="11.5" fill="#ca8a04" text-anchor="start" font-weight="700" font-style="normal">новый максимум</text>
<text x="64" y="340" font-size="10.5" fill="#a8a29e" text-anchor="end">Объём</text>
<rect x="94.1" y="370.0" width="9" height="20.0" fill="#86efac"/>
<rect x="122.6" y="376.7" width="9" height="13.3" fill="#fca5a5"/>
<rect x="151.2" y="363.3" width="9" height="26.7" fill="#86efac"/>
<rect x="179.8" y="356.7" width="9" height="33.3" fill="#86efac"/>
<rect x="208.4" y="370.0" width="9" height="20.0" fill="#fca5a5"/>
<rect x="236.9" y="350.0" width="9" height="40.0" fill="#86efac"/>
<rect x="265.5" y="343.3" width="9" height="46.7" fill="#86efac"/>
<rect x="294.1" y="370.0" width="9" height="20.0" fill="#fca5a5"/>
<rect x="322.6" y="350.0" width="9" height="40.0" fill="#86efac"/>
<rect x="351.2" y="336.7" width="9" height="53.3" fill="#86efac"/>
<rect x="379.8" y="356.7" width="9" height="33.3" fill="#fca5a5"/>
<rect x="408.4" y="350.0" width="9" height="40.0" fill="#fca5a5"/>
<rect x="436.9" y="370.0" width="9" height="20.0" fill="#86efac"/>
<rect x="465.5" y="363.3" width="9" height="26.7" fill="#fca5a5"/>
<rect x="494.1" y="356.7" width="9" height="33.3" fill="#86efac"/>
<rect x="522.6" y="343.3" width="9" height="46.7" fill="#86efac"/>
<rect x="551.2" y="336.7" width="9" height="53.3" fill="#86efac"/>
<rect x="579.8" y="363.3" width="9" height="26.7" fill="#fca5a5"/>
<rect x="608.4" y="343.3" width="9" height="46.7" fill="#86efac"/>
<rect x="636.9" y="330.0" width="9" height="60.0" fill="#86efac"/>
<text x="380" y="415" font-size="11.5" fill="#92400e" text-anchor="middle" font-weight="400" font-style="italic">Цена слева, время слева→направо. Внизу — объём (сколько наторговали за свечу).</text>
</svg>
