<svg xmlns="http://www.w3.org/2000/svg" viewBox="0 0 760 420" font-family="Segoe UI, Arial, sans-serif">
<rect width="760" height="420" rx="16" fill="#fffbeb"/>
<text x="380.0" y="30" font-size="19" fill="#713f12" text-anchor="middle" font-weight="700" font-style="normal">Скользящие средние и «золотой крест»</text>
<text x="380.0" y="50" font-size="12.5" fill="#92400e" text-anchor="middle" font-weight="400" font-style="normal">MA(50) пересекает MA(200) снизу вверх — сигнал тренда</text>
<rect x="70" y="64" width="620" height="290" rx="8" fill="#ffffff"/>
<line x1="70" y1="354.0" x2="690" y2="354.0" stroke="#f3e8c8" stroke-width="1"/>
<text x="696" y="358.0" font-size="10.5" fill="#a8a29e">90</text>
<line x1="70" y1="273.4" x2="690" y2="273.4" stroke="#f3e8c8" stroke-width="1"/>
<text x="696" y="277.4" font-size="10.5" fill="#a8a29e">100</text>
<line x1="70" y1="192.9" x2="690" y2="192.9" stroke="#f3e8c8" stroke-width="1"/>
<text x="696" y="196.9" font-size="10.5" fill="#a8a29e">110</text>
<line x1="70" y1="112.3" x2="690" y2="112.3" stroke="#f3e8c8" stroke-width="1"/>
<text x="696" y="116.3" font-size="10.5" fill="#a8a29e">120</text>
<line x1="93.8" y1="264.6" x2="93.8" y2="298.4" stroke="#991b1b" stroke-width="1.5"/>
<rect x="87.3" y="273.4" width="13.1" height="16.1" rx="1.5" fill="#ef4444" stroke="#991b1b" stroke-width="1"/>
<line x1="117.7" y1="280.7" x2="117.7" y2="314.5" stroke="#991b1b" stroke-width="1.5"/>
<rect x="111.1" y="289.6" width="13.1" height="16.1" rx="1.5" fill="#ef4444" stroke="#991b1b" stroke-width="1"/>
<line x1="141.5" y1="288.8" x2="141.5" y2="314.5" stroke="#166534" stroke-width="1.5"/>
<rect x="135.0" y="297.6" width="13.1" height="8.1" rx="1.5" fill="#22c55e" stroke="#166534" stroke-width="1"/>
<line x1="165.4" y1="288.8" x2="165.4" y2="322.6" stroke="#991b1b" stroke-width="1.5"/>
<rect x="158.8" y="297.6" width="13.1" height="16.1" rx="1.5" fill="#ef4444" stroke="#991b1b" stroke-width="1"/>
<line x1="189.2" y1="304.9" x2="189.2" y2="330.6" stroke="#991b1b" stroke-width="1.5"/>
<rect x="182.7" y="313.7" width="13.1" height="8.1" rx="1.5" fill="#ef4444" stroke="#991b1b" stroke-width="1"/>
<line x1="213.1" y1="296.8" x2="213.1" y2="330.6" stroke="#166534" stroke-width="1.5"/>
<rect x="206.5" y="305.7" width="13.1" height="16.1" rx="1.5" fill="#22c55e" stroke="#166534" stroke-width="1"/>
<line x1="236.9" y1="296.8" x2="236.9" y2="322.6" stroke="#991b1b" stroke-width="1.5"/>
<rect x="230.4" y="305.7" width="13.1" height="8.1" rx="1.5" fill="#ef4444" stroke="#991b1b" stroke-width="1"/>
<line x1="260.8" y1="288.8" x2="260.8" y2="322.6" stroke="#166534" stroke-width="1.5"/>
<rect x="254.2" y="297.6" width="13.1" height="16.1" rx="1.5" fill="#22c55e" stroke="#166534" stroke-width="1"/>
<line x1="284.6" y1="272.6" x2="284.6" y2="306.5" stroke="#166534" stroke-width="1.5"/>
<rect x="278.1" y="281.5" width="13.1" height="16.1" rx="1.5" fill="#22c55e" stroke="#166534" stroke-width="1"/>
<line x1="308.5" y1="272.6" x2="308.5" y2="298.4" stroke="#991b1b" stroke-width="1.5"/>
<rect x="301.9" y="281.5" width="13.1" height="8.1" rx="1.5" fill="#ef4444" stroke="#991b1b" stroke-width="1"/>
<line x1="332.3" y1="256.5" x2="332.3" y2="298.4" stroke="#166534" stroke-width="1.5"/>
<rect x="325.8" y="265.4" width="13.1" height="24.2" rx="1.5" fill="#22c55e" stroke="#166534" stroke-width="1"/>
<line x1="356.2" y1="256.5" x2="356.2" y2="282.3" stroke="#991b1b" stroke-width="1.5"/>
<rect x="349.6" y="265.4" width="13.1" height="8.1" rx="1.5" fill="#ef4444" stroke="#991b1b" stroke-width="1"/>
<line x1="380.0" y1="240.4" x2="380.0" y2="282.3" stroke="#166534" stroke-width="1.5"/>
<rect x="373.4" y="249.3" width="13.1" height="24.2" rx="1.5" fill="#22c55e" stroke="#166534" stroke-width="1"/>
<line x1="403.8" y1="224.3" x2="403.8" y2="258.1" stroke="#166534" stroke-width="1.5"/>
<rect x="397.3" y="233.2" width="13.1" height="16.1" rx="1.5" fill="#22c55e" stroke="#166534" stroke-width="1"/>
<line x1="427.7" y1="224.3" x2="427.7" y2="250.1" stroke="#991b1b" stroke-width="1.5"/>
<rect x="421.1" y="233.2" width="13.1" height="8.1" rx="1.5" fill="#ef4444" stroke="#991b1b" stroke-width="1"/>
<line x1="451.5" y1="208.2" x2="451.5" y2="250.1" stroke="#166534" stroke-width="1.5"/>
<rect x="445.0" y="217.1" width="13.1" height="24.2" rx="1.5" fill="#22c55e" stroke="#166534" stroke-width="1"/>
<line x1="475.4" y1="184.0" x2="475.4" y2="225.9" stroke="#166534" stroke-width="1.5"/>
<rect x="468.8" y="192.9" width="13.1" height="24.2" rx="1.5" fill="#22c55e" stroke="#166534" stroke-width="1"/>
<line x1="499.2" y1="184.0" x2="499.2" y2="209.8" stroke="#991b1b" stroke-width="1.5"/>
<rect x="492.7" y="192.9" width="13.1" height="8.1" rx="1.5" fill="#ef4444" stroke="#991b1b" stroke-width="1"/>
<line x1="523.1" y1="167.9" x2="523.1" y2="209.8" stroke="#166534" stroke-width="1.5"/>
<rect x="516.5" y="176.8" width="13.1" height="24.2" rx="1.5" fill="#22c55e" stroke="#166534" stroke-width="1"/>
<line x1="546.9" y1="143.8" x2="546.9" y2="185.6" stroke="#166534" stroke-width="1.5"/>
<rect x="540.4" y="152.6" width="13.1" height="24.2" rx="1.5" fill="#22c55e" stroke="#166534" stroke-width="1"/>
<line x1="570.8" y1="143.8" x2="570.8" y2="169.5" stroke="#991b1b" stroke-width="1.5"/>
<rect x="564.2" y="152.6" width="13.1" height="8.1" rx="1.5" fill="#ef4444" stroke="#991b1b" stroke-width="1"/>
<line x1="594.6" y1="127.6" x2="594.6" y2="169.5" stroke="#166534" stroke-width="1.5"/>
<rect x="588.1" y="136.5" width="13.1" height="24.2" rx="1.5" fill="#22c55e" stroke="#166534" stroke-width="1"/>
<line x1="618.5" y1="103.5" x2="618.5" y2="145.4" stroke="#166534" stroke-width="1.5"/>
<rect x="611.9" y="112.3" width="13.1" height="24.2" rx="1.5" fill="#22c55e" stroke="#166534" stroke-width="1"/>
<line x1="642.3" y1="103.5" x2="642.3" y2="129.2" stroke="#991b1b" stroke-width="1.5"/>
<rect x="635.8" y="112.3" width="13.1" height="8.1" rx="1.5" fill="#ef4444" stroke="#991b1b" stroke-width="1"/>
<line x1="666.2" y1="87.4" x2="666.2" y2="129.2" stroke="#166534" stroke-width="1.5"/>
<rect x="659.6" y="96.2" width="13.1" height="24.2" rx="1.5" fill="#22c55e" stroke="#166534" stroke-width="1"/>
<polyline points="189.2,305.7 213.1,308.9 236.9,310.5 260.8,310.5 284.6,304.1 308.5,297.6 332.3,289.6 356.2,281.5 380.0,271.8 403.8,262.2 427.7,252.5 451.5,242.8 475.4,226.7 499.2,217.1 523.1,205.8 546.9,188.1 570.8,176.8 594.6,165.5 618.5,147.8 642.3,136.5 666.2,125.2" fill="none" stroke="#2563eb" stroke-width="2.2"/>
<polyline points="308.5,301.6 332.3,299.2 356.2,296.0 380.0,291.2 403.8,283.1 427.7,275.1 451.5,266.2 475.4,254.1 499.2,244.4 523.1,234.0 546.9,220.3 570.8,209.8 594.6,196.1 618.5,182.4 642.3,171.1 666.2,156.6" fill="none" stroke="#dc2626" stroke-width="2.2"/>
<text x="90" y="80" font-size="11.5" fill="#2563eb" text-anchor="start" font-weight="700" font-style="normal">— MA «быстрая» (50)</text>
<text x="90" y="96" font-size="11.5" fill="#dc2626" text-anchor="start" font-weight="700" font-style="normal">— MA «медленная» (200)</text>
<circle cx="427.7" cy="252.5" r="9" fill="none" stroke="#ca8a04" stroke-width="2.5"/>
<text x="427.6923076923077" y="238.50000000000003" font-size="11.5" fill="#ca8a04" text-anchor="middle" font-weight="700" font-style="normal">золотой крест ↑</text>
<text x="380" y="405" font-size="11.5" fill="#92400e" text-anchor="middle" font-weight="400" font-style="italic">Цена выше MA — тренд вверх. Пересечение быстрой и медленной MA = ранний сигнал смены тренда.</text>
</svg>
