<svg xmlns="http://www.w3.org/2000/svg" viewBox="0 0 760 440" font-family="Segoe UI, Arial, sans-serif">
<rect width="760" height="440" rx="16" fill="#fffbeb"/>
<text x="380.0" y="30" font-size="19" fill="#713f12" text-anchor="middle" font-weight="700" font-style="normal">Разбор сделки: вход, стоп-лосс, тейк-профит, R:R</text>
<text x="380.0" y="50" font-size="12.5" fill="#92400e" text-anchor="middle" font-weight="400" font-style="normal">лонг от поддержки · риск 1:3</text>
<rect x="70" y="64" width="540" height="300" rx="8" fill="#ffffff"/>
<line x1="70" y1="311.1" x2="610" y2="311.1" stroke="#f3e8c8" stroke-width="1"/>
<text x="616" y="315.1" font-size="10.5" fill="#a8a29e">100</text>
<line x1="70" y1="222.8" x2="610" y2="222.8" stroke="#f3e8c8" stroke-width="1"/>
<text x="616" y="226.8" font-size="10.5" fill="#a8a29e">110</text>
<line x1="70" y1="134.6" x2="610" y2="134.6" stroke="#f3e8c8" stroke-width="1"/>
<text x="616" y="138.6" font-size="10.5" fill="#a8a29e">120</text>
<line x1="98.4" y1="212.2" x2="98.4" y2="259.9" stroke="#991b1b" stroke-width="1.5"/>
<rect x="90.6" y="222.8" width="15.6" height="26.5" rx="1.5" fill="#ef4444" stroke="#991b1b" stroke-width="1"/>
<line x1="126.8" y1="238.7" x2="126.8" y2="286.4" stroke="#991b1b" stroke-width="1.5"/>
<rect x="119.0" y="249.3" width="15.6" height="26.5" rx="1.5" fill="#ef4444" stroke="#991b1b" stroke-width="1"/>
<line x1="155.3" y1="265.2" x2="155.3" y2="312.8" stroke="#991b1b" stroke-width="1.5"/>
<rect x="147.4" y="275.8" width="15.6" height="26.5" rx="1.5" fill="#ef4444" stroke="#991b1b" stroke-width="1"/>
<line x1="183.7" y1="291.6" x2="183.7" y2="321.6" stroke="#991b1b" stroke-width="1.5"/>
<rect x="175.9" y="302.2" width="15.6" height="8.8" rx="1.5" fill="#ef4444" stroke="#991b1b" stroke-width="1"/>
<line x1="212.1" y1="282.8" x2="212.1" y2="321.6" stroke="#166534" stroke-width="1.5"/>
<rect x="204.3" y="293.4" width="15.6" height="17.6" rx="1.5" fill="#22c55e" stroke="#166534" stroke-width="1"/>
<line x1="240.5" y1="282.8" x2="240.5" y2="312.8" stroke="#991b1b" stroke-width="1.5"/>
<rect x="232.7" y="293.4" width="15.6" height="8.8" rx="1.5" fill="#ef4444" stroke="#991b1b" stroke-width="1"/>
<line x1="268.9" y1="265.2" x2="268.9" y2="312.8" stroke="#166534" stroke-width="1.5"/>
<rect x="261.1" y="275.8" width="15.6" height="26.5" rx="1.5" fill="#22c55e" stroke="#166534" stroke-width="1"/>
<line x1="297.4" y1="247.5" x2="297.4" y2="286.4" stroke="#166534" stroke-width="1.5"/>
<rect x="289.6" y="258.1" width="15.6" height="17.6" rx="1.5" fill="#22c55e" stroke="#166534" stroke-width="1"/>
<line x1="325.8" y1="247.5" x2="325.8" y2="277.5" stroke="#991b1b" stroke-width="1.5"/>
<rect x="318.0" y="258.1" width="15.6" height="8.8" rx="1.5" fill="#ef4444" stroke="#991b1b" stroke-width="1"/>
<line x1="354.2" y1="229.9" x2="354.2" y2="277.5" stroke="#166534" stroke-width="1.5"/>
<rect x="346.4" y="240.5" width="15.6" height="26.5" rx="1.5" fill="#22c55e" stroke="#166534" stroke-width="1"/>
<line x1="382.6" y1="203.4" x2="382.6" y2="251.1" stroke="#166534" stroke-width="1.5"/>
<rect x="374.8" y="214.0" width="15.6" height="26.5" rx="1.5" fill="#22c55e" stroke="#166534" stroke-width="1"/>
<line x1="411.1" y1="203.4" x2="411.1" y2="233.4" stroke="#991b1b" stroke-width="1.5"/>
<rect x="403.2" y="214.0" width="15.6" height="8.8" rx="1.5" fill="#ef4444" stroke="#991b1b" stroke-width="1"/>
<line x1="439.5" y1="185.8" x2="439.5" y2="233.4" stroke="#166534" stroke-width="1.5"/>
<rect x="431.7" y="196.4" width="15.6" height="26.5" rx="1.5" fill="#22c55e" stroke="#166534" stroke-width="1"/>
<line x1="467.9" y1="159.3" x2="467.9" y2="206.9" stroke="#166534" stroke-width="1.5"/>
<rect x="460.1" y="169.9" width="15.6" height="26.5" rx="1.5" fill="#22c55e" stroke="#166534" stroke-width="1"/>
<line x1="496.3" y1="132.8" x2="496.3" y2="180.5" stroke="#166534" stroke-width="1.5"/>
<rect x="488.5" y="143.4" width="15.6" height="26.5" rx="1.5" fill="#22c55e" stroke="#166534" stroke-width="1"/>
<line x1="524.7" y1="132.8" x2="524.7" y2="162.8" stroke="#991b1b" stroke-width="1.5"/>
<rect x="516.9" y="143.4" width="15.6" height="8.8" rx="1.5" fill="#ef4444" stroke="#991b1b" stroke-width="1"/>
<line x1="553.2" y1="115.2" x2="553.2" y2="162.8" stroke="#166534" stroke-width="1.5"/>
<rect x="545.3" y="125.8" width="15.6" height="26.5" rx="1.5" fill="#22c55e" stroke="#166534" stroke-width="1"/>
<line x1="581.6" y1="88.7" x2="581.6" y2="136.4" stroke="#166534" stroke-width="1.5"/>
<rect x="573.8" y="99.3" width="15.6" height="26.5" rx="1.5" fill="#22c55e" stroke="#166534" stroke-width="1"/>
<rect x="70" y="284.6" width="540" height="35.3" fill="#fee2e2" opacity="0.7"/>
<rect x="70" y="125.8" width="540" height="158.8" fill="#dcfce7" opacity="0.6"/>
<line x1="70" y1="284.6" x2="610" y2="284.6" stroke="#2563eb" stroke-width="2"/>
<rect x="74" y="268.6" width="58" height="15" rx="3" fill="#2563eb"/>
<text x="78" y="280.6" font-size="10.5" fill="#fff" font-weight="700">ВХОД 103</text>
<line x1="70" y1="319.9" x2="610" y2="319.9" stroke="#991b1b" stroke-width="2" stroke-dasharray="5 3"/>
<rect x="74" y="303.9" width="51" height="15" rx="3" fill="#991b1b"/>
<text x="78" y="315.9" font-size="10.5" fill="#fff" font-weight="700">СТОП 99</text>
<line x1="70" y1="125.8" x2="610" y2="125.8" stroke="#166534" stroke-width="2" stroke-dasharray="5 3"/>
<rect x="74" y="109.8" width="58" height="15" rx="3" fill="#166534"/>
<text x="78" y="121.8" font-size="10.5" fill="#fff" font-weight="700">ТЕЙК 121</text>
<text x="618" y="306.2352941176471" font-size="12" fill="#991b1b" text-anchor="start" font-weight="700" font-style="normal">риск</text>
<text x="618" y="322.2352941176471" font-size="11" fill="#991b1b" text-anchor="start" font-weight="400" font-style="normal">−4</text>
<text x="618" y="209.1764705882353" font-size="12" fill="#166534" text-anchor="start" font-weight="700" font-style="normal">прибыль</text>
<text x="618" y="225.1764705882353" font-size="11" fill="#166534" text-anchor="start" font-weight="400" font-style="normal">+18</text>
<path d="M240.5,332.2 L240.5,310.2" stroke="#ca8a04" stroke-width="2" marker-end="url(#ar)"/>
<text x="240.5263157894737" y="348.2352941176471" font-size="10.5" fill="#ca8a04" text-anchor="middle" font-weight="700" font-style="normal">сигнал: молот у поддержки</text>
<defs><marker id="ar" markerWidth="9" markerHeight="9" refX="7" refY="4" orient="auto"><path d="M0,0 L8,4 L0,8 z" fill="#ca8a04"/></marker></defs>
<text x="380" y="410" font-size="11.5" fill="#92400e" text-anchor="middle" font-weight="400" font-style="italic">R:R = риск 4 к прибыли 18 ≈ 1:4.5. Даже при 40% удачных сделок такой R:R оставляет в плюсе.</text>
<text x="380" y="428" font-size="11" fill="#b91c1c" text-anchor="middle" font-weight="700" font-style="normal">⚠️ Учебный пример. Стоп ставится ДО входа и не двигается против себя.</text>
</svg>
