<svg xmlns="http://www.w3.org/2000/svg" viewBox="0 0 760 420" font-family="Segoe UI, Arial, sans-serif">
<rect width="760" height="420" rx="16" fill="#fffbeb"/>
<text x="380.0" y="30" font-size="19" fill="#713f12" text-anchor="middle" font-weight="700" font-style="normal">Восходящий канал на реальных свечах</text>
<text x="380.0" y="50" font-size="12.5" fill="#92400e" text-anchor="middle" font-weight="400" font-style="normal">цена идёт между двумя параллельными линиями</text>
<rect x="70" y="64" width="620" height="290" rx="8" fill="#ffffff"/>
<line x1="70" y1="319.9" x2="690" y2="319.9" stroke="#f3e8c8" stroke-width="1"/>
<text x="696" y="323.9" font-size="10.5" fill="#a8a29e">100</text>
<line x1="70" y1="234.6" x2="690" y2="234.6" stroke="#f3e8c8" stroke-width="1"/>
<text x="696" y="238.6" font-size="10.5" fill="#a8a29e">110</text>
<line x1="70" y1="149.3" x2="690" y2="149.3" stroke="#f3e8c8" stroke-width="1"/>
<text x="696" y="153.3" font-size="10.5" fill="#a8a29e">120</text>
<line x1="70" y1="64.0" x2="690" y2="64.0" stroke="#f3e8c8" stroke-width="1"/>
<text x="696" y="68.0" font-size="10.5" fill="#a8a29e">130</text>
<line x1="102.6" y1="274.7" x2="102.6" y2="331.0" stroke="#166534" stroke-width="1.5"/>
<rect x="93.7" y="285.8" width="17.9" height="34.1" rx="1.5" fill="#22c55e" stroke="#166534" stroke-width="1"/>
<line x1="135.3" y1="274.7" x2="135.3" y2="322.4" stroke="#991b1b" stroke-width="1.5"/>
<rect x="126.3" y="285.8" width="17.9" height="25.6" rx="1.5" fill="#ef4444" stroke="#991b1b" stroke-width="1"/>
<line x1="167.9" y1="257.6" x2="167.9" y2="322.4" stroke="#166534" stroke-width="1.5"/>
<rect x="158.9" y="268.7" width="17.9" height="42.6" rx="1.5" fill="#22c55e" stroke="#166534" stroke-width="1"/>
<line x1="200.5" y1="232.0" x2="200.5" y2="279.8" stroke="#166534" stroke-width="1.5"/>
<rect x="191.6" y="243.1" width="17.9" height="25.6" rx="1.5" fill="#22c55e" stroke="#166534" stroke-width="1"/>
<line x1="233.2" y1="232.0" x2="233.2" y2="288.3" stroke="#991b1b" stroke-width="1.5"/>
<rect x="224.2" y="243.1" width="17.9" height="34.1" rx="1.5" fill="#ef4444" stroke="#991b1b" stroke-width="1"/>
<line x1="265.8" y1="223.5" x2="265.8" y2="288.3" stroke="#166534" stroke-width="1.5"/>
<rect x="256.8" y="234.6" width="17.9" height="42.6" rx="1.5" fill="#22c55e" stroke="#166534" stroke-width="1"/>
<line x1="298.4" y1="197.9" x2="298.4" y2="245.7" stroke="#166534" stroke-width="1.5"/>
<rect x="289.4" y="209.0" width="17.9" height="25.6" rx="1.5" fill="#22c55e" stroke="#166534" stroke-width="1"/>
<line x1="331.1" y1="197.9" x2="331.1" y2="254.2" stroke="#991b1b" stroke-width="1.5"/>
<rect x="322.1" y="209.0" width="17.9" height="34.1" rx="1.5" fill="#ef4444" stroke="#991b1b" stroke-width="1"/>
<line x1="363.7" y1="189.4" x2="363.7" y2="254.2" stroke="#166534" stroke-width="1.5"/>
<rect x="354.7" y="200.5" width="17.9" height="42.6" rx="1.5" fill="#22c55e" stroke="#166534" stroke-width="1"/>
<line x1="396.3" y1="163.8" x2="396.3" y2="211.6" stroke="#166534" stroke-width="1.5"/>
<rect x="387.3" y="174.9" width="17.9" height="25.6" rx="1.5" fill="#22c55e" stroke="#166534" stroke-width="1"/>
<line x1="428.9" y1="163.8" x2="428.9" y2="220.1" stroke="#991b1b" stroke-width="1.5"/>
<rect x="420.0" y="174.9" width="17.9" height="34.1" rx="1.5" fill="#ef4444" stroke="#991b1b" stroke-width="1"/>
<line x1="461.6" y1="155.3" x2="461.6" y2="220.1" stroke="#166534" stroke-width="1.5"/>
<rect x="452.6" y="166.4" width="17.9" height="42.6" rx="1.5" fill="#22c55e" stroke="#166534" stroke-width="1"/>
<line x1="494.2" y1="129.7" x2="494.2" y2="177.4" stroke="#166534" stroke-width="1.5"/>
<rect x="485.2" y="140.8" width="17.9" height="25.6" rx="1.5" fill="#22c55e" stroke="#166534" stroke-width="1"/>
<line x1="526.8" y1="129.7" x2="526.8" y2="186.0" stroke="#991b1b" stroke-width="1.5"/>
<rect x="517.9" y="140.8" width="17.9" height="34.1" rx="1.5" fill="#ef4444" stroke="#991b1b" stroke-width="1"/>
<line x1="559.5" y1="121.1" x2="559.5" y2="186.0" stroke="#166534" stroke-width="1.5"/>
<rect x="550.5" y="132.2" width="17.9" height="42.6" rx="1.5" fill="#22c55e" stroke="#166534" stroke-width="1"/>
<line x1="592.1" y1="95.6" x2="592.1" y2="143.3" stroke="#166534" stroke-width="1.5"/>
<rect x="583.1" y="106.6" width="17.9" height="25.6" rx="1.5" fill="#22c55e" stroke="#166534" stroke-width="1"/>
<line x1="624.7" y1="95.6" x2="624.7" y2="151.9" stroke="#991b1b" stroke-width="1.5"/>
<rect x="615.8" y="106.6" width="17.9" height="34.1" rx="1.5" fill="#ef4444" stroke="#991b1b" stroke-width="1"/>
<line x1="657.4" y1="87.0" x2="657.4" y2="151.9" stroke="#166534" stroke-width="1.5"/>
<rect x="648.4" y="98.1" width="17.9" height="42.6" rx="1.5" fill="#22c55e" stroke="#166534" stroke-width="1"/>
<polyline points="102.6,328.4 657.4,149.3" fill="none" stroke="#ca8a04" stroke-width="2.5"/>
<polyline points="102.6,268.7 657.4,81.1" fill="none" stroke="#ca8a04" stroke-width="2.5" stroke-dasharray="6 4"/>
<text x="653.3684210526316" y="167.29411764705884" font-size="11" fill="#166534" text-anchor="end" font-weight="700" font-style="normal">линия поддержки (покупай у неё)</text>
<text x="653.3684210526316" y="75.05882352941177" font-size="11" fill="#991b1b" text-anchor="end" font-weight="700" font-style="normal">линия сопротивления (фиксируй)</text>
<circle cx="167.9" cy="322.4" r="5" fill="none" stroke="#166534" stroke-width="2"/>
<circle cx="331.1" cy="254.2" r="5" fill="none" stroke="#166534" stroke-width="2"/>
<circle cx="526.8" cy="186.0" r="5" fill="none" stroke="#166534" stroke-width="2"/>
<text x="380" y="405" font-size="11.5" fill="#92400e" text-anchor="middle" font-weight="400" font-style="italic">Чем больше касаний — тем надёжнее линия. Пробой канала = смена настроения рынка.</text>
</svg>
